<?xml version="1.0" encoding="iso-8859-1"?>
<!DOCTYPE svg PUBLIC "-//W3C//DTD SVG 1.1//EN" "http://www.w3.org/Graphics/SVG/1.1/DTD/svg11.dtd">
<svg 
 version="1.1" xmlns="http://www.w3.org/2000/svg" xmlns:xlink="http://www.w3.org/1999/xlink" x="0px" y="0px" width="512px"
	 height="512px" viewBox="0 0 512 512" style="enable-background:new 0 0 512 512;" xml:space="preserve"
><g id="afcae5a789ccd549f9c6e2a2f80fede0"><g></g><g fill="#54c242"><path style="display: inline; fill-rule: evenodd; clip-rule: evenodd;" d="M445.993,0.5c0,0,8.472,45.375-62.032,92.588
		c-77.324,51.797-187.422,48.449-296.749,184.775c-69.518,86.685-33.234,217.703-33.234,217.703s-7.101-85.379,56.249-152.942
		C172.67,276.028,296.758,216.6,365.202,169.827c49.876-34.087,56.282-66.192,56.282-66.192s18.23,18.357-50.368,76.327
		c-57,48.179-197.481,131.084-242.554,185.842C75.474,430.313,85.801,511.5,85.801,511.5s203.704-6.993,319.63-166.487
		C515.122,194.098,445.993,0.5,445.993,0.5z"></path></g></g></svg>