<?xml version="1.0" encoding="iso-8859-1"?>
<!DOCTYPE svg PUBLIC "-//W3C//DTD SVG 1.1//EN" "http://www.w3.org/Graphics/SVG/1.1/DTD/svg11.dtd">
<svg 
 version="1.1" xmlns="http://www.w3.org/2000/svg" xmlns:xlink="http://www.w3.org/1999/xlink" x="0px" y="0px" width="512px"
	 height="512px" viewBox="0 0 512 512" style="enable-background:new 0 0 512 512;" xml:space="preserve"
><g id="afcae5a789ccd549f9c6e2a2f81474a9"><g></g><path style="display: inline;" d="M256,0.5C114.893,0.5,0.5,114.891,0.5,256c0,141.107,114.393,255.5,255.5,255.5
		S511.5,397.107,511.5,256C511.5,114.891,397.107,0.5,256,0.5z M327.381,234.708c-1.476-4.942-3.422-9.686-5.838-14.139
		l99.234-99.237c25.833,31.55,42.808,70.618,47.074,113.376H327.381z M44.15,234.708c4.265-42.758,21.238-81.823,47.07-113.374
		l99.237,99.235c-2.416,4.458-4.362,9.199-5.839,14.139H44.15z M256,309.229c-29.351,0-53.229-23.879-53.229-53.229
		c0-29.351,23.878-53.229,53.229-53.229s53.229,23.878,53.229,53.229C309.229,285.351,285.351,309.229,256,309.229z
		 M291.431,190.458c-4.458-2.418-9.198-4.362-14.139-5.841V44.15c42.758,4.265,81.823,21.24,113.374,47.073L291.431,190.458z
		 M234.708,184.619c-4.944,1.477-9.685,3.42-14.139,5.839L121.33,91.223c31.551-25.833,70.616-42.806,113.378-47.073V184.619z
		 M220.569,321.543c4.454,2.416,9.194,4.362,14.139,5.838v140.472c-42.762-4.268-81.823-21.242-113.378-47.075L220.569,321.543z
		 M277.292,327.386c4.94-1.48,9.681-3.427,14.139-5.843l99.235,99.234c-31.551,25.833-70.616,42.808-113.374,47.075V327.386z
		 M44.15,277.292h140.469c1.477,4.94,3.423,9.681,5.839,14.139l-99.235,99.235C65.39,359.115,48.415,320.05,44.15,277.292z
		 M420.777,390.67l-99.234-99.239c2.416-4.454,4.362-9.198,5.838-14.139h140.471C463.585,320.05,446.61,359.115,420.777,390.67z
		 M298.583,256c0,23.521-19.063,42.583-42.583,42.583S213.417,279.521,213.417,256c0-23.519,19.063-42.583,42.583-42.583
		S298.583,232.481,298.583,256z"></path></g></svg>